<svg xmlns="http://www.w3.org/2000/svg" xmlns:xlink="http://www.w3.org/1999/xlink" width="2000" zoomAndPan="magnify" viewBox="0 0 1500 1499.999933" height="2000" preserveAspectRatio="xMidYMid meet" version="1.0"><defs><clipPath id="c44ffbbca0"><path d="M 298.027344 317.046875 L 1201.777344 317.046875 L 1201.777344 1183 L 298.027344 1183 Z M 298.027344 317.046875 " clip-rule="nonzero"/></clipPath></defs><g clip-path="url(#c44ffbbca0)"><path fill="#6f66c4" d="M 760.3125 1003.550781 C 757.691406 1000.929688 754.042969 999.320312 750.011719 999.320312 C 745.964844 999.320312 742.332031 1000.949219 739.695312 1003.550781 C 737.074219 1006.171875 735.46875 1009.820312 735.46875 1013.867188 C 735.46875 1017.878906 737.09375 1021.527344 739.730469 1024.148438 L 739.695312 1024.183594 C 742.332031 1026.804688 745.964844 1028.414062 750.011719 1028.414062 C 754.023438 1028.414062 757.675781 1026.789062 760.296875 1024.148438 C 762.914062 1021.527344 764.558594 1017.878906 764.558594 1013.867188 C 764.542969 1009.820312 762.914062 1006.167969 760.3125 1003.550781 M 735.394531 1121.363281 L 735.394531 1055.085938 C 729.214844 1052.878906 723.667969 1049.339844 719.113281 1044.785156 L 719.078125 1044.75 L 719.042969 1044.785156 C 711.128906 1036.871094 706.230469 1025.9375 706.230469 1013.847656 C 706.230469 1001.816406 711.128906 990.882812 719.042969 982.96875 L 719.097656 982.914062 C 727.011719 975 737.925781 970.101562 749.976562 970.101562 C 762.03125 970.101562 772.925781 975 780.859375 982.914062 L 780.914062 982.96875 C 788.828125 990.882812 793.722656 1001.796875 793.722656 1013.847656 C 793.722656 1025.921875 788.828125 1036.871094 780.914062 1044.785156 C 776.359375 1049.339844 770.792969 1052.898438 764.578125 1055.101562 L 764.578125 1121.363281 L 850.933594 995.871094 C 833.441406 981.25 802.9375 948.960938 797.863281 898.421875 L 702.09375 898.421875 C 697.015625 948.960938 666.511719 981.25 649.023438 995.871094 Z M 762.664062 1175.535156 C 760.132812 1179.929688 755.417969 1182.875 749.996094 1182.875 C 744.574219 1182.875 739.839844 1179.929688 737.328125 1175.535156 L 617.109375 1000.820312 C 612.539062 994.207031 614.203125 985.136719 620.816406 980.566406 L 621.464844 980.148438 L 621.449219 980.113281 C 621.59375 980.023438 673.632812 948.652344 673.632812 883.820312 C 673.632812 875.761719 680.175781 869.21875 688.234375 869.21875 L 811.757812 869.21875 C 819.816406 869.21875 826.359375 875.761719 826.359375 883.820312 C 826.359375 948.652344 878.398438 980.023438 878.542969 980.113281 C 885.410156 984.339844 887.558594 993.324219 883.332031 1000.1875 C 883.007812 1000.730469 882.644531 1001.238281 882.265625 1001.707031 Z M 901.347656 453.507812 C 868.476562 466.683594 840.867188 487.082031 818.496094 513.335938 C 794.320312 541.707031 776.179688 577.015625 763.980469 617.507812 C 762.625 622.082031 759.066406 625.894531 754.152344 627.355469 C 746.433594 629.652344 738.304688 625.261719 736.007812 617.546875 C 723.8125 577.015625 705.671875 541.6875 681.492188 513.320312 C 659.121094 487.066406 631.53125 466.664062 598.644531 453.492188 L 481.207031 453.492188 C 473.148438 453.492188 466.609375 446.949219 466.609375 438.890625 C 466.609375 430.832031 473.148438 424.289062 481.207031 424.289062 L 1018.746094 424.289062 C 1026.804688 424.289062 1033.34375 430.832031 1033.34375 438.890625 C 1033.34375 446.949219 1026.804688 453.492188 1018.746094 453.492188 L 901.347656 453.492188 Z M 659.140625 453.507812 C 675.601562 465.199219 690.4375 478.914062 703.628906 494.402344 C 722.402344 516.425781 737.835938 541.996094 749.996094 570.492188 C 762.15625 541.996094 777.585938 516.410156 796.363281 494.402344 C 809.570312 478.914062 824.386719 465.199219 840.847656 453.507812 Z M 399.082031 842.386719 L 328.953125 842.386719 C 331.84375 856.316406 338.765625 868.75 348.433594 878.433594 C 361.390625 891.390625 379.296875 899.414062 399.082031 899.414062 C 418.867188 899.414062 436.777344 891.390625 449.730469 878.433594 C 459.417969 868.75 466.335938 856.316406 469.210938 842.386719 Z M 300.078125 820.722656 L 376.765625 666.984375 C 358.390625 662.757812 341.964844 653.394531 329.082031 640.511719 C 311.15625 622.585938 300.0625 597.832031 300.0625 570.492188 C 300.0625 543.152344 311.136719 518.398438 329.0625 500.472656 C 346.988281 482.546875 371.742188 471.46875 399.082031 471.46875 L 516.210938 471.46875 L 516.210938 471.488281 C 516.570312 471.488281 516.933594 471.507812 517.292969 471.523438 C 608.238281 478.464844 660.40625 523.621094 690.3125 585.253906 C 719.167969 644.742188 726.394531 719.152344 728.039062 788.414062 C 728.222656 796.453125 721.878906 803.121094 713.835938 803.300781 C 705.796875 803.480469 699.128906 797.140625 698.949219 789.097656 C 697.375 723.21875 690.691406 652.761719 664.074219 597.921875 C 642.625 553.742188 607.625 519.464844 550.578125 506 C 582.09375 530.773438 604.335938 564.023438 619.949219 601.554688 C 643.910156 659.105469 651.984375 726.597656 654.242188 788.230469 C 654.535156 796.253906 648.246094 803.011719 640.203125 803.285156 C 632.164062 803.574219 625.421875 797.285156 625.152344 789.242188 C 623 730.535156 615.414062 666.515625 593.023438 612.722656 C 571.664062 561.402344 536.519531 519.335938 479.023438 500.652344 L 399.082031 500.652344 C 379.800781 500.652344 362.347656 508.476562 349.714844 521.109375 C 337.085938 533.738281 329.261719 551.195312 329.261719 570.472656 C 329.261719 589.753906 337.066406 607.210938 349.714844 619.839844 C 362.347656 632.472656 379.800781 640.296875 399.082031 640.296875 C 418.363281 640.296875 435.816406 632.472656 448.449219 619.839844 C 461.078125 607.210938 468.886719 589.753906 468.886719 570.472656 C 468.886719 562.414062 475.425781 555.875 483.484375 555.875 C 491.542969 555.875 498.085938 562.414062 498.085938 570.472656 C 498.085938 597.8125 486.992188 622.570312 469.085938 640.492188 C 456.199219 653.378906 439.773438 662.738281 421.398438 666.964844 L 498.085938 820.703125 L 498.195312 820.882812 L 498.304688 821.101562 L 498.320312 821.117188 L 498.355469 821.207031 L 498.519531 821.535156 L 498.574219 821.640625 L 498.628906 821.75 L 498.644531 821.785156 L 498.664062 821.839844 L 498.699219 821.949219 L 498.738281 822.058594 L 498.753906 822.113281 L 498.773438 822.148438 L 498.808594 822.257812 L 498.84375 822.363281 L 498.882812 822.472656 L 498.953125 822.691406 L 498.988281 822.78125 L 498.988281 822.796875 L 499.027344 822.90625 L 499.097656 823.125 L 499.132812 823.230469 L 499.171875 823.339844 L 499.207031 823.449219 L 499.207031 823.46875 L 499.242188 823.558594 L 499.277344 823.667969 L 499.316406 823.773438 L 499.316406 823.8125 L 499.332031 823.882812 L 499.367188 823.992188 L 499.40625 824.101562 L 499.421875 824.152344 L 499.441406 824.207031 L 499.460938 824.316406 L 499.496094 824.425781 L 499.511719 824.496094 L 499.511719 824.535156 L 499.566406 824.75 L 499.585938 824.839844 L 499.585938 824.859375 L 499.621094 825.074219 L 499.640625 825.183594 L 499.65625 825.292969 L 499.675781 825.402344 L 499.695312 825.507812 L 499.695312 825.527344 L 499.710938 825.636719 L 499.730469 825.742188 L 499.75 825.851562 L 499.75 825.886719 L 499.765625 825.980469 L 499.785156 826.085938 L 499.800781 826.214844 L 499.800781 826.339844 L 499.820312 826.628906 L 499.820312 826.808594 L 499.839844 827.007812 L 499.839844 827.046875 L 499.855469 827.28125 L 499.855469 827.769531 C 499.855469 855.613281 488.5625 880.820312 470.332031 899.070312 C 452.082031 917.320312 426.875 928.613281 399.027344 928.613281 C 371.183594 928.613281 345.976562 917.320312 327.726562 899.070312 C 309.546875 880.820312 298.253906 855.613281 298.253906 827.769531 C 298.253906 825.21875 298.921875 822.816406 300.078125 820.722656 Z M 399.082031 687.601562 L 336.433594 813.1875 L 461.710938 813.1875 Z M 1100.90625 687.601562 L 1038.261719 813.1875 L 1163.539062 813.1875 Z M 1201.753906 827.769531 C 1201.753906 855.613281 1190.460938 880.820312 1172.210938 899.070312 C 1153.960938 917.320312 1128.753906 928.613281 1100.90625 928.613281 C 1073.0625 928.613281 1047.855469 917.320312 1029.605469 899.070312 C 1011.355469 880.820312 1000.078125 855.613281 1000.078125 827.769531 C 1000.078125 825.203125 1000.730469 822.800781 1001.90625 820.722656 L 1078.59375 666.984375 C 1060.214844 662.738281 1043.789062 653.394531 1030.90625 640.511719 C 1012.980469 622.585938 1001.90625 597.832031 1001.90625 570.492188 C 1001.90625 562.433594 1008.445312 555.890625 1016.503906 555.890625 C 1024.5625 555.890625 1031.105469 562.433594 1031.105469 570.492188 C 1031.105469 589.773438 1038.910156 607.226562 1051.558594 619.859375 C 1064.191406 632.488281 1081.644531 640.3125 1100.925781 640.3125 C 1120.207031 640.3125 1137.660156 632.488281 1150.292969 619.859375 C 1162.921875 607.226562 1170.746094 589.773438 1170.746094 570.492188 C 1170.746094 551.210938 1162.921875 533.757812 1150.292969 521.125 C 1137.660156 508.496094 1120.207031 500.671875 1100.925781 500.671875 L 1020.984375 500.671875 C 963.488281 519.355469 928.34375 561.421875 906.984375 612.738281 C 884.597656 666.53125 876.988281 730.554688 874.855469 789.261719 C 874.566406 797.300781 867.828125 803.574219 859.804688 803.300781 C 851.78125 803.011719 845.492188 796.273438 845.765625 788.25 C 848.023438 726.613281 856.101562 659.105469 880.0625 601.570312 C 895.691406 564.042969 917.933594 530.792969 949.429688 506.019531 C 892.382812 519.480469 857.367188 553.757812 835.933594 597.941406 C 809.316406 652.78125 802.613281 723.234375 801.058594 789.117188 C 800.878906 797.15625 794.210938 803.519531 786.171875 803.320312 C 778.148438 803.140625 771.789062 796.472656 771.96875 788.429688 C 773.613281 719.167969 780.824219 644.757812 809.699219 585.273438 C 839.601562 523.636719 891.789062 478.480469 982.714844 471.542969 C 983.074219 471.507812 983.4375 471.507812 983.800781 471.507812 L 983.800781 471.488281 L 1100.925781 471.488281 C 1128.265625 471.488281 1153.019531 482.566406 1170.945312 500.492188 C 1188.871094 518.398438 1199.949219 543.171875 1199.949219 570.511719 C 1199.949219 597.851562 1188.871094 622.605469 1170.945312 640.53125 C 1158.0625 653.414062 1141.636719 662.773438 1123.261719 667.003906 L 1199.929688 820.722656 L 1200.039062 820.902344 L 1200.09375 821.011719 L 1200.148438 821.117188 L 1200.148438 821.136719 L 1200.183594 821.226562 L 1200.292969 821.445312 L 1200.34375 821.550781 L 1200.453125 821.769531 L 1200.472656 821.804688 L 1200.488281 821.859375 L 1200.527344 821.96875 L 1200.582031 822.074219 L 1200.617188 822.128906 L 1200.632812 822.167969 L 1200.671875 822.273438 L 1200.777344 822.601562 L 1200.816406 822.707031 L 1200.851562 822.796875 L 1200.851562 822.816406 L 1200.921875 823.035156 L 1200.960938 823.140625 L 1201.066406 823.46875 L 1201.066406 823.484375 L 1201.105469 823.574219 L 1201.175781 823.792969 L 1201.195312 823.828125 L 1201.210938 823.902344 L 1201.25 824.007812 L 1201.285156 824.117188 L 1201.304688 824.171875 L 1201.320312 824.226562 L 1201.355469 824.335938 L 1201.375 824.441406 L 1201.394531 824.515625 L 1201.410156 824.550781 L 1201.464844 824.769531 L 1201.484375 824.859375 L 1201.484375 824.875 L 1201.519531 825.09375 L 1201.539062 825.203125 L 1201.554688 825.308594 L 1201.59375 825.527344 L 1201.59375 825.546875 L 1201.609375 825.652344 L 1201.628906 825.761719 L 1201.644531 825.871094 L 1201.644531 825.996094 L 1201.664062 826.105469 L 1201.683594 826.230469 L 1201.683594 826.359375 L 1201.699219 826.648438 L 1201.699219 826.828125 L 1201.71875 827.027344 L 1201.71875 827.0625 L 1201.738281 827.296875 L 1201.738281 827.550781 Z M 1030.78125 842.386719 C 1033.671875 856.316406 1040.589844 868.75 1050.257812 878.433594 C 1063.214844 891.390625 1081.121094 899.414062 1100.90625 899.414062 C 1120.695312 899.414062 1138.601562 891.390625 1151.558594 878.433594 C 1161.242188 868.75 1168.164062 856.316406 1171.035156 842.386719 Z M 764.59375 367.246094 L 808.613281 367.246094 L 831.761719 328.035156 C 835.84375 321.09375 844.789062 318.800781 851.726562 322.902344 C 858.667969 327.003906 860.960938 335.929688 856.859375 342.867188 L 829.953125 388.457031 C 827.550781 393.191406 822.617188 396.445312 816.925781 396.445312 L 683.066406 396.445312 C 677.375 396.445312 672.457031 393.191406 670.035156 388.457031 L 643.132812 342.867188 C 639.03125 335.929688 641.34375 327.003906 648.261719 322.902344 C 655.203125 318.800781 664.128906 321.113281 668.230469 328.035156 L 691.378906 367.246094 L 735.394531 367.246094 L 735.394531 331.648438 C 735.394531 323.589844 741.9375 317.046875 749.996094 317.046875 C 758.054688 317.046875 764.59375 323.589844 764.59375 331.648438 Z M 601.410156 970.589844 C 594.832031 975.214844 585.722656 973.644531 581.097656 967.050781 C 576.472656 960.472656 578.042969 951.363281 584.640625 946.738281 C 596.890625 938.121094 607.40625 928.796875 614.636719 917.175781 C 621.683594 905.863281 625.855469 891.84375 625.855469 873.320312 L 625.855469 832.160156 C 625.855469 824.101562 632.398438 817.558594 640.457031 817.558594 L 859.535156 817.558594 C 867.59375 817.558594 874.132812 824.101562 874.132812 832.160156 L 874.132812 873.320312 C 874.132812 891.84375 878.324219 905.863281 885.355469 917.175781 C 892.582031 928.796875 903.097656 938.121094 915.351562 946.738281 C 921.929688 951.363281 923.519531 960.453125 918.890625 967.050781 C 914.265625 973.625 905.175781 975.214844 898.582031 970.589844 C 883.441406 959.929688 870.25 948.074219 860.601562 932.589844 C 850.769531 916.796875 844.933594 897.789062 844.933594 873.339844 L 844.933594 846.777344 L 655.058594 846.777344 L 655.058594 873.339844 C 655.058594 897.789062 649.222656 916.796875 639.390625 932.589844 C 629.742188 948.09375 616.53125 959.949219 601.410156 970.589844 Z M 601.410156 970.589844 " fill-opacity="1" fill-rule="evenodd"/></g></svg>