<svg xmlns="http://www.w3.org/2000/svg" xmlns:xlink="http://www.w3.org/1999/xlink" width="2000" zoomAndPan="magnify" viewBox="0 0 1500 1499.999933" height="2000" preserveAspectRatio="xMidYMid meet" version="1.0"><defs><clipPath id="9ca7bf1df0"><path d="M 5.050781 36.398438 L 1495 36.398438 L 1495 1463.648438 L 5.050781 1463.648438 Z M 5.050781 36.398438 " clip-rule="nonzero"/></clipPath></defs><g clip-path="url(#9ca7bf1df0)"><path fill="#6f66c4" d="M 767.003906 1167.90625 C 762.6875 1163.589844 756.671875 1160.9375 750.027344 1160.9375 C 743.359375 1160.9375 737.371094 1163.617188 733.023438 1167.90625 C 728.703125 1172.226562 726.054688 1178.242188 726.054688 1184.914062 C 726.054688 1191.523438 728.734375 1197.542969 733.082031 1201.859375 L 733.023438 1201.917969 C 737.371094 1206.238281 743.359375 1208.890625 750.027344 1208.890625 C 756.640625 1208.890625 762.65625 1206.207031 766.976562 1201.859375 C 771.292969 1197.542969 774.003906 1191.523438 774.003906 1184.914062 C 773.972656 1178.242188 771.292969 1172.226562 767.003906 1167.90625 M 725.933594 1362.089844 L 725.933594 1252.847656 C 715.75 1249.214844 706.605469 1243.378906 699.101562 1235.871094 L 699.039062 1235.8125 L 698.980469 1235.871094 C 685.9375 1222.828125 677.863281 1204.808594 677.863281 1184.882812 C 677.863281 1165.046875 685.9375 1147.03125 698.980469 1133.984375 L 699.070312 1133.894531 C 712.117188 1120.851562 730.105469 1112.78125 749.96875 1112.78125 C 769.835938 1112.78125 787.792969 1120.851562 800.867188 1133.894531 L 800.957031 1133.984375 C 814.003906 1147.03125 822.074219 1165.019531 822.074219 1184.882812 C 822.074219 1204.777344 814.003906 1222.828125 800.957031 1235.871094 C 793.453125 1243.378906 784.277344 1249.246094 774.035156 1252.878906 L 774.035156 1362.089844 L 916.367188 1155.25 C 887.535156 1131.15625 837.261719 1077.933594 828.894531 994.632812 L 671.042969 994.632812 C 662.675781 1077.933594 612.402344 1131.15625 583.574219 1155.25 Z M 770.875 1451.378906 C 766.707031 1458.617188 758.933594 1463.472656 750 1463.472656 C 741.0625 1463.472656 733.261719 1458.617188 729.121094 1451.378906 L 530.976562 1163.410156 C 523.441406 1152.511719 526.179688 1137.558594 537.082031 1130.023438 L 538.152344 1129.339844 L 538.125 1129.28125 C 538.363281 1129.128906 624.136719 1077.425781 624.136719 970.566406 C 624.136719 957.285156 634.917969 946.503906 648.203125 946.503906 L 851.796875 946.503906 C 865.078125 946.503906 875.859375 957.285156 875.859375 970.566406 C 875.859375 1077.425781 961.636719 1129.128906 961.875 1129.28125 C 973.191406 1136.25 976.734375 1151.050781 969.765625 1162.367188 C 969.230469 1163.261719 968.632812 1164.09375 968.007812 1164.871094 Z M 999.460938 261.320312 C 945.285156 283.03125 899.777344 316.65625 862.90625 359.929688 C 823.054688 406.6875 793.15625 464.886719 773.050781 531.628906 C 770.816406 539.164062 764.949219 545.449219 756.847656 547.859375 C 744.132812 551.640625 730.730469 544.40625 726.945312 531.6875 C 706.84375 464.886719 676.941406 406.660156 637.09375 359.902344 C 600.222656 316.625 554.742188 283 500.539062 261.289062 L 306.980469 261.289062 C 293.695312 261.289062 282.914062 250.507812 282.914062 237.226562 C 282.914062 223.941406 293.695312 213.160156 306.980469 213.160156 L 1192.957031 213.160156 C 1206.242188 213.160156 1217.023438 223.941406 1217.023438 237.226562 C 1217.023438 250.507812 1206.242188 261.289062 1192.957031 261.289062 L 999.460938 261.289062 Z M 600.25 261.320312 C 627.382812 280.589844 651.835938 303.195312 673.578125 328.71875 C 704.519531 365.023438 729.957031 407.164062 750 454.132812 C 770.042969 407.164062 795.476562 364.992188 826.421875 328.71875 C 848.191406 303.195312 872.613281 280.589844 899.746094 261.320312 Z M 171.617188 902.273438 L 56.03125 902.273438 C 60.796875 925.238281 72.203125 945.726562 88.136719 961.691406 C 109.492188 983.046875 139.003906 996.269531 171.617188 996.269531 C 204.230469 996.269531 233.746094 983.046875 255.097656 961.691406 C 271.0625 945.726562 282.46875 925.238281 287.203125 902.273438 Z M 8.4375 866.566406 L 134.835938 613.171875 C 104.546875 606.203125 77.472656 590.777344 56.238281 569.542969 C 26.695312 539.996094 8.40625 499.195312 8.40625 454.132812 C 8.40625 409.070312 26.664062 368.269531 56.210938 338.726562 C 85.753906 309.179688 126.554688 290.921875 171.617188 290.921875 L 364.667969 290.921875 L 364.667969 290.953125 C 365.265625 290.953125 365.859375 290.984375 366.457031 291.011719 C 516.351562 302.449219 602.335938 376.875 651.625 478.464844 C 699.191406 576.511719 711.101562 699.15625 713.8125 813.3125 C 714.109375 826.566406 703.65625 837.558594 690.402344 837.855469 C 677.152344 838.152344 666.160156 827.699219 665.863281 814.445312 C 663.273438 705.855469 652.253906 589.734375 608.382812 499.34375 C 573.03125 426.523438 515.339844 370.027344 421.316406 347.839844 C 473.257812 388.671875 509.921875 443.472656 535.652344 505.328125 C 575.144531 600.1875 588.457031 711.425781 592.179688 813.015625 C 592.65625 826.238281 582.292969 837.378906 569.039062 837.824219 C 555.785156 838.300781 544.675781 827.9375 544.230469 814.683594 C 540.6875 717.917969 528.175781 612.398438 491.277344 523.734375 C 456.074219 439.152344 398.144531 369.816406 303.375 339.023438 L 171.617188 339.023438 C 139.839844 339.023438 111.070312 351.917969 90.25 372.738281 C 69.433594 393.554688 56.535156 422.324219 56.535156 454.101562 C 56.535156 485.882812 69.402344 514.652344 90.25 535.46875 C 111.070312 556.289062 139.839844 569.183594 171.617188 569.183594 C 203.394531 569.183594 232.164062 556.289062 252.984375 535.46875 C 273.800781 514.652344 286.667969 485.882812 286.667969 454.101562 C 286.667969 440.820312 297.449219 430.039062 310.734375 430.039062 C 324.015625 430.039062 334.796875 440.820312 334.796875 454.101562 C 334.796875 499.164062 316.511719 539.96875 286.996094 569.511719 C 265.761719 590.746094 238.6875 606.175781 208.398438 613.144531 L 334.796875 866.535156 L 334.976562 866.832031 L 335.15625 867.191406 L 335.183594 867.21875 L 335.242188 867.371094 L 335.332031 867.546875 L 335.601562 868.085938 L 335.691406 868.261719 L 335.71875 868.324219 L 335.75 868.410156 L 335.808594 868.589844 L 335.871094 868.769531 L 335.898438 868.859375 L 335.929688 868.917969 L 335.988281 869.097656 L 336.046875 869.273438 L 336.109375 869.453125 L 336.226562 869.8125 L 336.285156 869.960938 L 336.285156 869.988281 L 336.347656 870.167969 L 336.464844 870.527344 L 336.523438 870.703125 L 336.585938 870.882812 L 336.644531 871.0625 L 336.644531 871.09375 L 336.703125 871.242188 L 336.761719 871.417969 L 336.824219 871.597656 L 336.824219 871.65625 L 336.851562 871.777344 L 336.910156 871.957031 L 336.972656 872.132812 L 337 872.222656 L 337.03125 872.3125 L 337.0625 872.492188 L 337.121094 872.671875 L 337.148438 872.789062 L 337.148438 872.847656 L 337.238281 873.207031 L 337.269531 873.355469 L 337.269531 873.386719 L 337.328125 873.742188 L 337.359375 873.921875 L 337.386719 874.101562 L 337.417969 874.277344 L 337.449219 874.457031 L 337.449219 874.488281 L 337.476562 874.664062 L 337.539062 875.023438 L 337.539062 875.082031 L 337.566406 875.230469 L 337.597656 875.410156 L 337.625 875.617188 L 337.625 875.828125 L 337.65625 876.304688 L 337.65625 876.601562 L 337.6875 876.929688 L 337.6875 876.988281 L 337.714844 877.375 L 337.714844 878.179688 C 337.714844 924.074219 319.101562 965.621094 289.050781 995.703125 C 258.96875 1025.785156 217.421875 1044.398438 171.527344 1044.398438 C 125.632812 1044.398438 84.085938 1025.785156 54.003906 995.703125 C 24.042969 965.621094 5.429688 924.074219 5.429688 878.179688 C 5.429688 873.980469 6.53125 870.019531 8.4375 866.566406 Z M 171.617188 647.15625 L 68.359375 854.144531 L 274.84375 854.144531 Z M 1328.382812 647.15625 L 1225.125 854.144531 L 1431.609375 854.144531 Z M 1494.597656 878.179688 C 1494.597656 924.074219 1475.984375 965.621094 1445.902344 995.703125 C 1415.824219 1025.785156 1374.277344 1044.398438 1328.382812 1044.398438 C 1282.484375 1044.398438 1240.9375 1025.785156 1210.859375 995.703125 C 1180.777344 965.621094 1162.191406 924.074219 1162.191406 878.179688 C 1162.191406 873.953125 1163.265625 869.992188 1165.199219 866.566406 L 1291.597656 613.171875 C 1261.308594 606.175781 1234.238281 590.777344 1213.003906 569.542969 C 1183.457031 539.996094 1165.199219 499.195312 1165.199219 454.132812 C 1165.199219 440.851562 1175.984375 430.070312 1189.265625 430.070312 C 1202.546875 430.070312 1213.328125 440.851562 1213.328125 454.132812 C 1213.328125 485.910156 1226.195312 514.683594 1247.042969 535.5 C 1267.863281 556.316406 1296.632812 569.214844 1328.410156 569.214844 C 1360.1875 569.214844 1388.960938 556.316406 1409.777344 535.5 C 1430.59375 514.683594 1443.492188 485.910156 1443.492188 454.132812 C 1443.492188 422.355469 1430.59375 393.585938 1409.777344 372.765625 C 1388.960938 351.949219 1360.1875 339.050781 1328.410156 339.050781 L 1196.652344 339.050781 C 1101.882812 369.847656 1043.957031 439.183594 1008.753906 523.765625 C 971.851562 612.429688 959.3125 717.949219 955.796875 814.714844 C 955.320312 827.96875 944.210938 838.300781 930.988281 837.855469 C 917.765625 837.378906 907.402344 826.269531 907.847656 813.046875 C 911.570312 711.457031 924.882812 600.1875 964.375 505.359375 C 990.136719 443.5 1026.800781 388.699219 1078.710938 347.867188 C 984.6875 370.054688 926.96875 426.554688 891.644531 499.375 C 847.777344 589.765625 836.726562 705.886719 834.164062 814.476562 C 833.867188 827.730469 822.878906 838.210938 809.625 837.882812 C 796.402344 837.585938 785.917969 826.597656 786.214844 813.34375 C 788.925781 699.1875 800.808594 576.539062 848.402344 478.496094 C 897.691406 376.90625 983.703125 302.480469 1133.570312 291.042969 C 1134.167969 290.984375 1134.761719 290.984375 1135.359375 290.984375 L 1135.359375 290.953125 L 1328.410156 290.953125 C 1373.472656 290.953125 1414.273438 309.210938 1443.820312 338.753906 C 1473.363281 368.269531 1491.621094 409.101562 1491.621094 454.164062 C 1491.621094 499.222656 1473.363281 540.027344 1443.820312 569.570312 C 1422.585938 590.804688 1395.511719 606.234375 1365.222656 613.203125 L 1491.589844 866.566406 L 1491.769531 866.863281 L 1491.859375 867.042969 L 1491.949219 867.21875 L 1491.949219 867.25 L 1492.007812 867.398438 L 1492.1875 867.757812 L 1492.277344 867.933594 L 1492.363281 868.113281 L 1492.453125 868.292969 L 1492.484375 868.351562 L 1492.515625 868.441406 L 1492.574219 868.621094 L 1492.664062 868.800781 L 1492.722656 868.886719 L 1492.753906 868.949219 L 1492.8125 869.125 L 1492.988281 869.664062 L 1493.050781 869.839844 L 1493.109375 869.988281 L 1493.109375 870.019531 L 1493.226562 870.378906 L 1493.289062 870.554688 L 1493.464844 871.09375 L 1493.464844 871.121094 L 1493.527344 871.269531 L 1493.644531 871.628906 L 1493.675781 871.6875 L 1493.703125 871.808594 L 1493.765625 871.984375 L 1493.824219 872.164062 L 1493.855469 872.253906 L 1493.882812 872.34375 L 1493.941406 872.523438 L 1493.972656 872.699219 L 1494.003906 872.820312 L 1494.03125 872.878906 L 1494.121094 873.234375 L 1494.152344 873.386719 L 1494.152344 873.414062 L 1494.210938 873.773438 L 1494.242188 873.949219 L 1494.269531 874.128906 L 1494.332031 874.488281 L 1494.332031 874.515625 L 1494.359375 874.695312 L 1494.390625 874.875 L 1494.417969 875.054688 L 1494.417969 875.261719 L 1494.449219 875.441406 L 1494.480469 875.648438 L 1494.480469 875.855469 L 1494.507812 876.332031 L 1494.507812 876.632812 L 1494.539062 876.960938 L 1494.539062 877.019531 L 1494.570312 877.40625 L 1494.570312 877.824219 Z M 1212.792969 902.273438 C 1217.558594 925.238281 1228.964844 945.726562 1244.898438 961.691406 C 1266.253906 983.046875 1295.769531 996.269531 1328.382812 996.269531 C 1360.992188 996.269531 1390.507812 983.046875 1411.863281 961.691406 C 1427.824219 945.726562 1439.234375 925.238281 1443.96875 902.273438 Z M 774.0625 119.136719 L 846.613281 119.136719 L 884.765625 54.507812 C 891.496094 43.070312 906.238281 39.289062 917.675781 46.050781 C 929.113281 52.808594 932.894531 67.523438 926.132812 78.960938 L 881.789062 154.101562 C 877.828125 161.90625 869.695312 167.265625 860.316406 167.265625 L 639.683594 167.265625 C 630.300781 167.265625 622.199219 161.90625 618.210938 154.101562 L 573.863281 78.960938 C 567.101562 67.523438 570.914062 52.808594 582.320312 46.050781 C 593.757812 39.289062 608.472656 43.101562 615.230469 54.507812 L 653.382812 119.136719 L 725.933594 119.136719 L 725.933594 60.464844 C 725.933594 47.179688 736.714844 36.398438 750 36.398438 C 763.28125 36.398438 774.0625 47.179688 774.0625 60.464844 Z M 505.09375 1113.582031 C 494.253906 1121.207031 479.242188 1118.617188 471.621094 1107.746094 C 463.996094 1096.90625 466.585938 1081.894531 477.457031 1074.269531 C 497.648438 1060.0625 514.984375 1044.695312 526.894531 1025.546875 C 538.511719 1006.902344 545.390625 983.789062 545.390625 953.261719 L 545.390625 885.417969 C 545.390625 872.136719 556.171875 861.351562 569.457031 861.351562 L 930.542969 861.351562 C 943.824219 861.351562 954.605469 872.136719 954.605469 885.417969 L 954.605469 953.261719 C 954.605469 983.789062 961.515625 1006.902344 973.101562 1025.546875 C 985.015625 1044.695312 1002.347656 1060.0625 1022.542969 1074.269531 C 1033.382812 1081.894531 1036.003906 1096.875 1028.378906 1107.746094 C 1020.753906 1118.585938 1005.773438 1121.207031 994.902344 1113.582031 C 969.945312 1096.011719 948.203125 1076.472656 932.300781 1050.949219 C 916.097656 1024.921875 906.476562 993.589844 906.476562 953.292969 L 906.476562 909.511719 L 593.519531 909.511719 L 593.519531 953.292969 C 593.519531 993.589844 583.902344 1024.921875 567.699219 1050.949219 C 551.792969 1076.503906 530.023438 1096.042969 505.09375 1113.582031 Z M 505.09375 1113.582031 " fill-opacity="1" fill-rule="evenodd"/></g></svg>